<svg width="36" height="36" viewBox="0 0 36 36" fill="none" xmlns="http://www.w3.org/2000/svg">
<rect width="36" height="36" rx="6" fill="white" fill-opacity="0.05"/>
<rect x="0.5" y="0.5" width="35" height="35" rx="5.5" stroke="white" stroke-opacity="0.2"/>
<path fill-rule="evenodd" clip-rule="evenodd" d="M15.8376 18.4322V17.7837C15.8376 17.2676 16.0427 16.7727 16.4076 16.4077C16.7725 16.0428 17.2675 15.8378 17.7836 15.8378H18.4328V13.6776C18.4328 13.5623 18.387 13.4518 18.3055 13.3703C18.224 13.2888 18.1134 13.243 17.9982 13.243H13.6782C13.5629 13.243 13.4524 13.2888 13.3709 13.3703C13.2894 13.4518 13.2436 13.5623 13.2436 13.6776V17.9976C13.2436 18.1128 13.2894 18.2234 13.3709 18.3049C13.4524 18.3864 13.5629 18.4322 13.6782 18.4322H15.8376ZM15.8376 19.7295H13.6782C13.2194 19.7278 12.7799 19.5447 12.4554 19.2203C12.131 18.8959 11.948 18.4564 11.9463 17.9976V13.6776C11.948 13.2188 12.131 12.7792 12.4554 12.4548C12.7799 12.1304 13.2194 11.9474 13.6782 11.9457H17.9982C18.457 11.9474 18.8965 12.1304 19.2209 12.4548C19.5453 12.7792 19.7284 13.2188 19.7301 13.6776V15.8378H21.6755C22.1916 15.8378 22.6865 16.0428 23.0515 16.4077C23.4164 16.7727 23.6214 17.2676 23.6214 17.7837V21.6756C23.6214 22.1917 23.4164 22.6867 23.0515 23.0516C22.6865 23.4165 22.1916 23.6216 21.6755 23.6216H17.7836C17.2675 23.6216 16.7725 23.4165 16.4076 23.0516C16.0427 22.6867 15.8376 22.1917 15.8376 21.6756V19.7295ZM17.3249 17.3251C17.4466 17.2034 17.6116 17.1351 17.7836 17.1351H21.6755C21.8475 17.1351 22.0125 17.2034 22.1341 17.3251C22.2558 17.4467 22.3241 17.6117 22.3241 17.7837V21.6756C22.3241 21.8476 22.2558 22.0126 22.1341 22.1343C22.0125 22.2559 21.8475 22.3243 21.6755 22.3243H17.7836C17.6116 22.3243 17.4466 22.2559 17.3249 22.1343C17.2033 22.0126 17.1349 21.8476 17.1349 21.6756V17.7837C17.1349 17.6117 17.2033 17.4467 17.3249 17.3251Z" fill="white" fill-opacity="0.4"/>
</svg>
