<svg width="36" height="36" viewBox="0 0 36 36" fill="none" xmlns="http://www.w3.org/2000/svg">
<rect width="36" height="36" rx="6" fill="#0B1025" fill-opacity="0.8"/>
<path d="M10.7059 15.5424C11.159 15.5424 11.403 15.2898 11.403 14.8279V12.7712C11.403 11.8649 11.891 11.4031 12.7625 11.4031H14.8714C15.3246 11.4031 15.5773 11.1503 15.5773 10.6972C15.5773 10.2527 15.3246 10 14.8714 10H12.7363C10.9238 10 10 10.8976 10 12.6928V14.8279C10 15.2898 10.2527 15.5424 10.7059 15.5424ZM25.2941 15.5424C25.7559 15.5424 26 15.2898 26 14.8279V12.6928C26 10.8976 25.0936 10 23.2636 10H21.1372C20.6753 10 20.4226 10.2527 20.4226 10.6972C20.4226 11.1503 20.6753 11.4031 21.1372 11.4031H23.2461C24.1002 11.4031 24.5969 11.8649 24.5969 12.7712V14.8279C24.5969 15.2898 24.8496 15.5424 25.2941 15.5424ZM17.6252 17.2418V14.2004C17.6252 13.9913 17.4597 13.817 17.2418 13.817H14.2091C13.9913 13.817 13.8257 13.9913 13.8257 14.2004V17.2418C13.8257 17.451 13.9913 17.6165 14.2091 17.6165H17.2418C17.4597 17.6165 17.6252 17.451 17.6252 17.2418ZM19.1329 14.5752H21.4161V16.8584H19.1329V14.5752ZM20.7538 16.1961V15.2462H19.8039V16.1961H20.7538ZM16.2048 16.1961V15.2462H15.2461V16.1961H16.2048ZM14.5839 19.1329H16.8671V21.4161H14.5839V19.1329ZM22.061 19.4292V18.4793H21.1111V19.4292H22.061ZM19.4379 19.4292V18.4793H18.488V19.4292H19.4379ZM16.2048 20.745V19.7952H15.2461V20.745H16.2048ZM20.7538 20.745V19.7952H19.7952V20.745H20.7538ZM21.1372 25.9912H23.2636C25.0936 25.9912 26 25.0849 26 23.2897V21.1634C26 20.7015 25.7473 20.4488 25.2941 20.4488C24.8409 20.4488 24.5969 20.7015 24.5969 21.1634V23.22C24.5969 24.1263 24.1002 24.5882 23.2461 24.5882H21.1372C20.6753 24.5882 20.4226 24.8409 20.4226 25.2941C20.4226 25.7385 20.6753 25.9912 21.1372 25.9912ZM12.7363 25.9912H14.8714C15.3246 25.9912 15.5773 25.7385 15.5773 25.2941C15.5773 24.8409 15.3246 24.5882 14.8714 24.5882H12.7625C11.891 24.5882 11.403 24.1263 11.403 23.22V21.1634C11.403 20.7015 11.1503 20.4488 10.7059 20.4488C10.244 20.4488 10 20.7015 10 21.1634V23.2897C10 25.0936 10.9238 25.9912 12.7363 25.9912ZM19.4379 22.061V21.1111H18.488V22.061H19.4379ZM22.061 22.061V21.1111H21.1111V22.061H22.061ZM22.1743 17.2418V14.2004C22.1743 13.9913 22.0086 13.817 21.7908 13.817H18.7581C18.5403 13.817 18.3747 13.9913 18.3747 14.2004V17.2418C18.3747 17.451 18.5403 17.6165 18.7581 17.6165H21.7908C22.0086 17.6165 22.1743 17.451 22.1743 17.2418ZM14.5839 14.5752H16.8671V16.8584H14.5839V14.5752ZM17.6252 21.7908V18.7494C17.6252 18.5403 17.4597 18.3747 17.2418 18.3747H14.2091C13.9913 18.3747 13.8257 18.5403 13.8257 18.7494V21.7908C13.8257 22 13.9913 22.1743 14.2091 22.1743H17.2418C17.4597 22.1743 17.6252 22 17.6252 21.7908Z" fill="white"/>
</svg>
