<svg width="33" height="33" viewBox="0 0 33 33" fill="none" xmlns="http://www.w3.org/2000/svg">
    <path fill-rule="evenodd" clip-rule="evenodd"
        d="M7.75456 27.9739C4.26326 25.3652 1.99804 21.1957 1.99804 16.5C1.99804 8.59565 8.41108 2.18261 16.3154 2.18261C22.8415 2.18261 29.9676 6.08261 31.6893 12.0565C29.7633 5.38261 23.6111 0.5 16.3154 0.5C7.48065 0.5 0.31543 7.66522 0.31543 16.5C0.31543 25.3348 7.48065 32.5 16.3154 32.5C25.1502 32.5 32.3154 25.3348 32.3154 16.5V15.6565H31.4372C31.4111 15.6565 31.372 15.6565 31.3198 15.6565C31.2154 15.6565 31.0676 15.6522 30.8763 15.6435C30.498 15.6304 29.9763 15.6043 29.3893 15.5522C28.1893 15.4478 26.8198 15.2435 25.8893 14.8696C24.3893 14.2696 23.5415 13.4783 22.5763 12.5478L22.5198 12.4957C21.5502 11.5652 20.4633 10.5174 18.572 9.63044C16.7111 8.75652 14.6546 8.89565 13.1459 9.2087C12.3806 9.36522 11.7198 9.57391 11.2546 9.74348C11.0198 9.82609 10.8328 9.90435 10.7024 9.95652C9.94152 10.2783 9.20239 10.6565 8.45891 11.0087C8.45891 11.0087 9.92413 11.4087 10.6459 11.6348C10.672 11.6435 10.7111 11.6565 10.7676 11.6739C10.8763 11.7087 11.0328 11.7652 11.2198 11.8435C11.6024 12 12.1024 12.2304 12.598 12.5522C13.3806 13.0522 14.0285 13.687 14.2937 14.4609C12.6372 14.6783 11.0806 15.4087 9.91543 16.0913C9.21108 16.5043 8.62413 16.9217 8.21108 17.2304C8.00673 17.387 7.84152 17.5174 7.72847 17.6087C7.63282 17.687 6.13717 19.0043 6.13717 19.0043C6.13717 19.0043 8.0676 19.2087 9.01978 19.4C9.65456 19.5261 10.5067 19.7348 11.4024 20.0435C12.298 20.3565 13.2024 20.7652 13.9546 21.2913C14.7067 21.8174 15.2589 22.4217 15.5285 23.1174C16.3198 25.1435 15.5415 27.113 13.9806 28.2217C12.4372 29.3174 10.0937 29.5783 7.75021 27.9696L7.75456 27.9739ZM13.2154 30.4783C13.8459 30.2739 14.4328 29.9739 14.9633 29.6C17.085 28.0913 18.2024 25.3261 17.1024 22.5087C16.6676 21.4 15.8415 20.5565 14.9241 19.913C14.0024 19.2696 12.9459 18.8 11.9633 18.4565C11.3198 18.2304 10.6937 18.0565 10.1502 17.9261C10.3459 17.8 10.5502 17.6696 10.772 17.5391C12.0676 16.7783 13.7024 16.0783 15.2676 16.0783C17.6285 16.0783 19.385 16.8043 21.0633 17.5783C21.2154 17.6478 21.3676 17.7217 21.5241 17.7913C23.0241 18.4957 24.598 19.2348 26.4285 19.2348C28.2589 19.2348 29.585 18.7348 30.5372 18.213C29.6893 25.3087 23.6502 30.813 16.3241 30.813C15.2589 30.813 14.2198 30.6957 13.2241 30.4783H13.2154ZM28.7111 17.1826C28.0806 17.3957 27.3154 17.5522 26.4241 17.5522C24.9893 17.5522 23.7546 16.9783 22.1893 16.2478C22.0502 16.1826 21.9111 16.1174 21.7676 16.0522C20.198 15.3261 18.385 14.5565 16.0241 14.4174C15.7067 12.8565 14.5241 11.787 13.5067 11.1348C13.3937 11.0609 13.2806 10.9913 13.1676 10.9261C13.2676 10.9043 13.372 10.8783 13.4806 10.8565C14.8459 10.5739 16.472 10.5043 17.8502 11.1565C19.485 11.9261 20.4111 12.813 21.372 13.7348L21.4067 13.7652C22.3937 14.713 23.4415 15.7087 25.2633 16.4391C26.2763 16.8435 27.5893 17.0609 28.7111 17.1826Z"
        fill="url(#paint0_linear_528_7069)" />
    <defs>
        <linearGradient id="paint0_linear_528_7069" x1="0.0284732" y1="16.7957" x2="32.6024" y2="16.2"
            gradientUnits="userSpaceOnUse">
            <stop stop-color="#29CCB9" />
            <stop offset="0.49" stop-color="#0091FF" />
            <stop offset="1" stop-color="#FF66B7" />
        </linearGradient>
    </defs>
</svg>