<svg width="108" height="17" viewBox="0 0 108 17" fill="none" xmlns="http://www.w3.org/2000/svg">
<rect width="108" height="17" rx="8.5" fill="url(#paint0_linear_4666_2103)"/>
<path fill-rule="evenodd" clip-rule="evenodd" d="M15.1368 7.49462H18.1843C18.3208 7.49464 18.4551 7.53189 18.5749 7.60296C18.6947 7.67403 18.7962 7.77666 18.8701 7.90144C18.944 8.02622 18.9879 8.16916 18.9978 8.31718C19.0078 8.4652 18.9834 8.61356 18.9269 8.74868L17.6533 12.7998C17.5432 13.1499 17.3352 13.4538 17.0584 13.669C16.7817 13.8843 16.4499 14 16.1097 14H10.75V7.79032C11.8232 7.79032 13.3791 6.79796 13.9993 3.8871C14.101 3.40984 14.3645 3 14.8151 3C15.0314 3 15.2389 3.09346 15.3919 3.25982C15.5449 3.42619 15.6308 3.65182 15.6308 3.8871C15.6084 5.10761 15.4423 6.31997 15.1368 7.49462ZM8.45833 7.58333H9.375C9.62813 7.58333 9.83333 7.82274 9.83333 8.11806V13.4653C9.83333 13.7606 9.62813 14 9.375 14H8.45833C8.2052 14 8 13.7606 8 13.4653V8.11806C8 7.82274 8.2052 7.58333 8.45833 7.58333Z" fill="white"/>
<path d="M27.902 12V4.3H30.52C31.0333 4.3 31.4807 4.399 31.862 4.597C32.2507 4.78767 32.5513 5.059 32.764 5.411C32.984 5.75567 33.094 6.159 33.094 6.621C33.094 7.127 32.962 7.56333 32.698 7.93C32.434 8.29667 32.0747 8.56433 31.62 8.733L33.303 12H31.884L30.355 8.92H29.222V12H27.902ZM29.222 7.864H30.41C30.8207 7.864 31.147 7.754 31.389 7.534C31.6383 7.30667 31.763 7.00967 31.763 6.643C31.763 6.269 31.6383 5.972 31.389 5.752C31.147 5.52467 30.8207 5.411 30.41 5.411H29.222V7.864ZM37.0387 12.11C36.5034 12.11 36.0194 11.9853 35.5867 11.736C35.154 11.4793 34.8094 11.1347 34.5527 10.702C34.3034 10.2693 34.1787 9.78533 34.1787 9.25C34.1787 8.70733 34.296 8.22333 34.5307 7.798C34.7727 7.37267 35.099 7.03533 35.5097 6.786C35.9277 6.52933 36.3934 6.401 36.9067 6.401C37.442 6.401 37.915 6.52567 38.3257 6.775C38.7437 7.02433 39.07 7.36167 39.3047 7.787C39.5467 8.21233 39.6677 8.7 39.6677 9.25V9.547H35.3997C35.4364 9.84767 35.5317 10.1153 35.6857 10.35C35.847 10.5773 36.0487 10.757 36.2907 10.889C36.54 11.021 36.8114 11.087 37.1047 11.087C37.3907 11.087 37.6547 11.032 37.8967 10.922C38.146 10.812 38.3514 10.658 38.5127 10.46L39.3377 11.197C39.0224 11.5123 38.674 11.7433 38.2927 11.89C37.9114 12.0367 37.4934 12.11 37.0387 12.11ZM35.4107 8.766H38.4797C38.4357 8.49467 38.3404 8.26 38.1937 8.062C38.0544 7.85667 37.8747 7.699 37.6547 7.589C37.442 7.47167 37.2 7.413 36.9287 7.413C36.672 7.413 36.4374 7.468 36.2247 7.578C36.0194 7.688 35.847 7.84567 35.7077 8.051C35.5684 8.249 35.4694 8.48733 35.4107 8.766ZM43.6344 12.11C43.0917 12.11 42.6004 11.9853 42.1604 11.736C41.7277 11.4793 41.3831 11.1383 41.1264 10.713C40.8771 10.2803 40.7524 9.79633 40.7524 9.261C40.7524 8.71833 40.8771 8.23067 41.1264 7.798C41.3831 7.36533 41.7277 7.02433 42.1604 6.775C42.6004 6.52567 43.0917 6.401 43.6344 6.401C44.1771 6.401 44.6647 6.51833 45.0974 6.753C45.5374 6.98767 45.8821 7.29933 46.1314 7.688L45.1634 8.359C45.0167 8.08767 44.8077 7.875 44.5364 7.721C44.2724 7.55967 43.9717 7.479 43.6344 7.479C43.3191 7.479 43.0367 7.556 42.7874 7.71C42.5381 7.864 42.3437 8.07667 42.2044 8.348C42.0651 8.612 41.9954 8.91633 41.9954 9.261C41.9954 9.59833 42.0651 9.90267 42.2044 10.174C42.3511 10.438 42.5454 10.647 42.7874 10.801C43.0367 10.955 43.3191 11.032 43.6344 11.032C43.9717 11.032 44.2724 10.955 44.5364 10.801C44.8077 10.6397 45.0167 10.427 45.1634 10.163L46.1314 10.823C45.8821 11.2117 45.5374 11.5233 45.0974 11.758C44.6647 11.9927 44.1771 12.11 43.6344 12.11ZM50.0871 12.11C49.5664 12.11 49.0971 11.9853 48.6791 11.736C48.2611 11.4793 47.9311 11.1383 47.6891 10.713C47.4471 10.2803 47.3261 9.79267 47.3261 9.25C47.3261 8.71467 47.4471 8.23433 47.6891 7.809C47.9311 7.37633 48.2611 7.03533 48.6791 6.786C49.0971 6.52933 49.5664 6.401 50.0871 6.401C50.6078 6.401 51.0771 6.52933 51.4951 6.786C51.9131 7.03533 52.2431 7.37633 52.4851 7.809C52.7271 8.23433 52.8481 8.71467 52.8481 9.25C52.8481 9.79267 52.7271 10.2803 52.4851 10.713C52.2431 11.1383 51.9131 11.4793 51.4951 11.736C51.0844 11.9853 50.6151 12.11 50.0871 12.11ZM50.0871 11.043C50.3878 11.043 50.6518 10.966 50.8791 10.812C51.1138 10.658 51.2971 10.4453 51.4291 10.174C51.5684 9.90267 51.6381 9.59467 51.6381 9.25C51.6381 8.90533 51.5684 8.601 51.4291 8.337C51.2971 8.06567 51.1138 7.853 50.8791 7.699C50.6518 7.545 50.3878 7.468 50.0871 7.468C49.7864 7.468 49.5188 7.54867 49.2841 7.71C49.0568 7.864 48.8734 8.07667 48.7341 8.348C48.6021 8.612 48.5361 8.91267 48.5361 9.25C48.5361 9.59467 48.6021 9.90267 48.7341 10.174C48.8734 10.4453 49.0568 10.658 49.2841 10.812C49.5188 10.966 49.7864 11.043 50.0871 11.043ZM53.9438 12V6.489H55.0108V6.962C55.1428 6.77133 55.2858 6.632 55.4398 6.544C55.6011 6.456 55.7808 6.412 55.9788 6.412C56.2135 6.412 56.4225 6.47067 56.6058 6.588C56.7965 6.698 56.9431 6.85933 57.0458 7.072C57.1925 6.84467 57.3611 6.67967 57.5518 6.577C57.7498 6.467 57.9698 6.412 58.2118 6.412C58.5711 6.412 58.8645 6.544 59.0918 6.808C59.3265 7.072 59.4438 7.41667 59.4438 7.842V12H58.3878V8.172C58.3878 7.908 58.3328 7.70267 58.2228 7.556C58.1128 7.402 57.9551 7.325 57.7498 7.325C57.6471 7.325 57.5518 7.347 57.4638 7.391C57.3758 7.435 57.2915 7.512 57.2108 7.622C57.2255 7.666 57.2328 7.71 57.2328 7.754C57.2328 7.798 57.2328 7.84567 57.2328 7.897V12H56.1768V8.172C56.1768 7.908 56.1181 7.70267 56.0008 7.556C55.8908 7.402 55.7331 7.325 55.5278 7.325C55.4398 7.325 55.3518 7.34333 55.2638 7.38C55.1758 7.41667 55.0915 7.48633 55.0108 7.589V12H53.9438ZM60.5395 12V6.489H61.6065V6.962C61.7385 6.77133 61.8815 6.632 62.0355 6.544C62.1968 6.456 62.3765 6.412 62.5745 6.412C62.8092 6.412 63.0182 6.47067 63.2015 6.588C63.3922 6.698 63.5388 6.85933 63.6415 7.072C63.7882 6.84467 63.9568 6.67967 64.1475 6.577C64.3455 6.467 64.5655 6.412 64.8075 6.412C65.1668 6.412 65.4602 6.544 65.6875 6.808C65.9222 7.072 66.0395 7.41667 66.0395 7.842V12H64.9835V8.172C64.9835 7.908 64.9285 7.70267 64.8185 7.556C64.7085 7.402 64.5508 7.325 64.3455 7.325C64.2428 7.325 64.1475 7.347 64.0595 7.391C63.9715 7.435 63.8872 7.512 63.8065 7.622C63.8212 7.666 63.8285 7.71 63.8285 7.754C63.8285 7.798 63.8285 7.84567 63.8285 7.897V12H62.7725V8.172C62.7725 7.908 62.7138 7.70267 62.5965 7.556C62.4865 7.402 62.3288 7.325 62.1235 7.325C62.0355 7.325 61.9475 7.34333 61.8595 7.38C61.7715 7.41667 61.6872 7.48633 61.6065 7.589V12H60.5395ZM70.0172 12.11C69.4819 12.11 68.9979 11.9853 68.5652 11.736C68.1326 11.4793 67.7879 11.1347 67.5312 10.702C67.2819 10.2693 67.1572 9.78533 67.1572 9.25C67.1572 8.70733 67.2746 8.22333 67.5092 7.798C67.7512 7.37267 68.0776 7.03533 68.4882 6.786C68.9062 6.52933 69.3719 6.401 69.8852 6.401C70.4206 6.401 70.8936 6.52567 71.3042 6.775C71.7222 7.02433 72.0486 7.36167 72.2832 7.787C72.5252 8.21233 72.6462 8.7 72.6462 9.25V9.547H68.3782C68.4149 9.84767 68.5102 10.1153 68.6642 10.35C68.8256 10.5773 69.0272 10.757 69.2692 10.889C69.5186 11.021 69.7899 11.087 70.0832 11.087C70.3692 11.087 70.6332 11.032 70.8752 10.922C71.1246 10.812 71.3299 10.658 71.4912 10.46L72.3162 11.197C72.0009 11.5123 71.6526 11.7433 71.2712 11.89C70.8899 12.0367 70.4719 12.11 70.0172 12.11ZM68.3892 8.766H71.4582C71.4142 8.49467 71.3189 8.26 71.1722 8.062C71.0329 7.85667 70.8532 7.699 70.6332 7.589C70.4206 7.47167 70.1786 7.413 69.9072 7.413C69.6506 7.413 69.4159 7.468 69.2032 7.578C68.9979 7.688 68.8256 7.84567 68.6862 8.051C68.5469 8.249 68.4479 8.48733 68.3892 8.766ZM74.0609 12V6.489H75.3039V7.314C75.7293 6.70533 76.2939 6.401 76.9979 6.401C77.3793 6.401 77.7129 6.48533 77.9989 6.654C78.2849 6.81533 78.5086 7.04633 78.6699 7.347C78.8386 7.64033 78.9229 7.98133 78.9229 8.37V12H77.6689V8.722C77.6689 8.31867 77.5589 7.99967 77.3389 7.765C77.1189 7.523 76.8256 7.402 76.4589 7.402C76.2243 7.402 76.0079 7.45333 75.8099 7.556C75.6119 7.65867 75.4433 7.809 75.3039 8.007V12H74.0609ZM82.7466 12.077C82.2846 12.077 81.863 11.9523 81.4816 11.703C81.1076 11.4537 80.807 11.1163 80.5796 10.691C80.3596 10.2583 80.2496 9.778 80.2496 9.25C80.2496 8.71467 80.3633 8.23433 80.5906 7.809C80.818 7.38367 81.1223 7.04633 81.5036 6.797C81.885 6.54033 82.3066 6.412 82.7686 6.412C83.0693 6.412 83.3443 6.47067 83.5936 6.588C83.8503 6.70533 84.0776 6.87033 84.2756 7.083V4.102L85.5186 3.893V12H84.3086V11.362C84.1106 11.5967 83.8796 11.7763 83.6156 11.901C83.3516 12.0183 83.062 12.077 82.7466 12.077ZM83.0436 11.054C83.293 11.054 83.524 11.0063 83.7366 10.911C83.9493 10.8157 84.129 10.68 84.2756 10.504V7.996C84.129 7.82 83.9456 7.68433 83.7256 7.589C83.513 7.48633 83.2856 7.435 83.0436 7.435C82.7356 7.435 82.4643 7.512 82.2296 7.666C81.995 7.82 81.8116 8.03267 81.6796 8.304C81.5476 8.57533 81.4816 8.89067 81.4816 9.25C81.4816 9.59467 81.5476 9.90633 81.6796 10.185C81.8116 10.4563 81.995 10.669 82.2296 10.823C82.4643 10.977 82.7356 11.054 83.0436 11.054ZM89.8043 12.11C89.269 12.11 88.785 11.9853 88.3523 11.736C87.9197 11.4793 87.575 11.1347 87.3183 10.702C87.069 10.2693 86.9443 9.78533 86.9443 9.25C86.9443 8.70733 87.0617 8.22333 87.2963 7.798C87.5383 7.37267 87.8647 7.03533 88.2753 6.786C88.6933 6.52933 89.159 6.401 89.6723 6.401C90.2077 6.401 90.6807 6.52567 91.0913 6.775C91.5093 7.02433 91.8357 7.36167 92.0703 7.787C92.3123 8.21233 92.4333 8.7 92.4333 9.25V9.547H88.1653C88.202 9.84767 88.2973 10.1153 88.4513 10.35C88.6127 10.5773 88.8143 10.757 89.0563 10.889C89.3057 11.021 89.577 11.087 89.8703 11.087C90.1563 11.087 90.4203 11.032 90.6623 10.922C90.9117 10.812 91.117 10.658 91.2783 10.46L92.1033 11.197C91.788 11.5123 91.4397 11.7433 91.0583 11.89C90.677 12.0367 90.259 12.11 89.8043 12.11ZM88.1763 8.766H91.2453C91.2013 8.49467 91.106 8.26 90.9593 8.062C90.82 7.85667 90.6403 7.699 90.4203 7.589C90.2077 7.47167 89.9657 7.413 89.6943 7.413C89.4377 7.413 89.203 7.468 88.9903 7.578C88.785 7.688 88.6127 7.84567 88.4733 8.051C88.334 8.249 88.235 8.48733 88.1763 8.766ZM95.938 12.077C95.476 12.077 95.0544 11.9523 94.673 11.703C94.299 11.4537 93.9984 11.1163 93.771 10.691C93.551 10.2583 93.441 9.778 93.441 9.25C93.441 8.71467 93.5547 8.23433 93.782 7.809C94.0094 7.38367 94.3137 7.04633 94.695 6.797C95.0764 6.54033 95.498 6.412 95.96 6.412C96.2607 6.412 96.5357 6.47067 96.785 6.588C97.0417 6.70533 97.269 6.87033 97.467 7.083V4.102L98.71 3.893V12H97.5V11.362C97.302 11.5967 97.071 11.7763 96.807 11.901C96.543 12.0183 96.2534 12.077 95.938 12.077ZM96.235 11.054C96.4844 11.054 96.7154 11.0063 96.928 10.911C97.1407 10.8157 97.3204 10.68 97.467 10.504V7.996C97.3204 7.82 97.137 7.68433 96.917 7.589C96.7044 7.48633 96.477 7.435 96.235 7.435C95.927 7.435 95.6557 7.512 95.421 7.666C95.1864 7.82 95.003 8.03267 94.871 8.304C94.739 8.57533 94.673 8.89067 94.673 9.25C94.673 9.59467 94.739 9.90633 94.871 10.185C95.003 10.4563 95.1864 10.669 95.421 10.823C95.6557 10.977 95.927 11.054 96.235 11.054Z" fill="white"/>
<defs>
<linearGradient id="paint0_linear_4666_2103" x1="-0.968478" y1="8.65707" x2="107.541" y2="-3.94857" gradientUnits="userSpaceOnUse">
<stop stop-color="#29CCB9"/>
<stop offset="0.49" stop-color="#0091FF"/>
<stop offset="1" stop-color="#FF66B7"/>
</linearGradient>
</defs>
</svg>
