<svg width="24" height="24" viewBox="0 0 24 24" fill="none" xmlns="http://www.w3.org/2000/svg">
<path fill-rule="evenodd" clip-rule="evenodd" d="M11.3514 14.3039C11.3637 14.6555 11.0889 14.9508 10.737 14.9634L10.737 14.9634C10.7121 14.9643 10.6311 14.9668 10.5052 14.9668C9.36699 14.9668 4.54921 14.764 4.10241 11.354C3.8491 9.42068 4.12126 7.96137 4.32005 6.89589C4.47755 6.05188 4.55539 5.56517 4.3922 5.30065C4.38448 5.2937 4.37671 5.28691 4.36894 5.28012C4.35219 5.26548 4.33543 5.25083 4.31912 5.23453C4.06986 4.98563 4.06986 4.58185 4.31912 4.33296C4.32035 4.33173 4.32171 4.33072 4.32308 4.32971C4.32437 4.32875 4.32567 4.32779 4.32685 4.32665C4.32799 4.32547 4.32894 4.32418 4.32989 4.3229C4.3309 4.32154 4.3319 4.32018 4.33314 4.31895C4.58209 4.06989 4.98652 4.06989 5.23546 4.31895C5.25186 4.33533 5.2666 4.35217 5.28133 4.369C5.28805 4.37667 5.29476 4.38434 5.30163 4.39197C5.56642 4.5551 6.05318 4.47739 6.8982 4.31988C7.96458 4.1211 9.42432 3.84917 11.36 4.10242C15.1503 4.59835 14.9813 10.4813 14.9723 10.7315C14.9598 11.0755 14.6769 11.3457 14.3351 11.3457C14.3275 11.3457 14.3199 11.3456 14.3123 11.3454L14.3122 11.3454C13.9601 11.333 13.6848 11.0377 13.697 10.686C13.6987 10.6362 13.8377 5.71256 11.1942 5.36668C9.4606 5.14044 8.17019 5.38037 7.13313 5.5732L7.13204 5.5734C6.64265 5.66465 6.18233 5.7504 5.75839 5.75708C5.75167 6.18059 5.66587 6.64046 5.57462 7.12953C5.38128 8.1659 5.14074 9.45554 5.36773 11.1883C5.7093 13.7957 10.5158 13.6929 10.6872 13.6893C10.6894 13.6892 10.6909 13.6892 10.6915 13.6892C11.0419 13.6742 11.339 13.9521 11.3514 14.3039ZM20.0002 8.70833C20.0002 8.20618 19.8045 7.73406 19.4492 7.379C19.0938 7.02379 18.6211 6.82812 18.1184 6.82812C17.6158 6.82812 17.1432 7.02379 16.788 7.37885C16.4325 7.73391 16.2366 8.20618 16.2366 8.70833C16.2366 8.9907 16.3006 9.26264 16.4179 9.51051C16.4407 9.6326 16.499 9.74938 16.5935 9.84387C16.9034 10.1535 16.8874 10.6097 16.8503 10.8543C16.7763 11.3412 16.4987 11.8555 16.0888 12.2651C15.2952 13.0584 14.1857 13.2894 13.6652 12.7695C13.4159 12.5207 13.012 12.5206 12.7627 12.7696C12.5136 13.0187 12.5136 13.4223 12.7628 13.6714C13.0727 13.981 13.0567 14.4372 13.0196 14.6818C12.9456 15.1687 12.668 15.683 12.2581 16.0927C11.8481 16.5022 11.3333 16.7796 10.846 16.8535C10.6014 16.8899 10.1447 16.9066 9.83448 16.597C9.73594 16.4984 9.61287 16.4405 9.48489 16.4199C8.78955 16.1001 7.93989 16.2196 7.36756 16.7912C6.63411 17.5244 6.63411 18.7171 7.36772 19.4504C7.7346 19.8168 8.2163 20 8.69831 20C9.18017 20 9.66218 19.8166 10.0291 19.4502C10.3906 19.0888 10.5721 18.6157 10.5772 18.141L10.582 18.1412L10.5871 18.1414C11.4544 18.1414 12.4062 17.7478 13.1604 16.9942C13.7677 16.3876 14.1657 15.6342 14.2813 14.8731C14.3105 14.6812 14.3188 14.4928 14.3105 14.3094C14.3234 14.3099 14.3363 14.3107 14.3491 14.3114C14.3719 14.3127 14.3946 14.3139 14.4176 14.3139C15.2849 14.3139 16.2371 13.9203 16.9911 13.1667C17.5984 12.5601 17.9964 11.8067 18.112 11.0456C18.1356 10.8901 18.1428 10.7376 18.1418 10.5874C18.6357 10.5814 19.0994 10.3875 19.449 10.038C19.8045 9.68291 20.0002 9.21064 20.0002 8.70833ZM9.12658 18.5485C8.8904 18.7848 8.50607 18.7843 8.2702 18.5486C8.03403 18.3127 8.03403 17.9288 8.27005 17.693C8.38814 17.575 8.54315 17.516 8.69831 17.516C8.85332 17.516 9.00849 17.575 9.12658 17.6928C9.3626 17.9288 9.36244 18.3127 9.12658 18.5485ZM18.5465 9.13624C18.3178 9.3646 17.9193 9.36475 17.6903 9.13609C17.5759 9.02183 17.5129 8.87007 17.5129 8.70833C17.5129 8.54676 17.5759 8.39499 17.6905 8.28058C17.8048 8.16633 17.9567 8.10329 18.1184 8.10329C18.2803 8.10329 18.4322 8.16633 18.5465 8.28058L18.5467 8.28074C18.661 8.39499 18.724 8.54676 18.724 8.70833C18.724 8.87006 18.661 9.02183 18.5465 9.13624ZM12.358 9.32397C12.358 9.75417 12.009 10.1029 11.5784 10.1029C11.1479 10.1029 10.7988 9.75417 10.7988 9.32397C10.7988 8.89377 11.1479 8.54503 11.5784 8.54503C12.009 8.54503 12.358 8.89377 12.358 9.32397ZM10.1074 11.5728C10.1074 12.003 9.75833 12.3517 9.32777 12.3517C8.89721 12.3517 8.54818 12.003 8.54818 11.5728C8.54818 11.1426 8.89721 10.7938 9.32777 10.7938C9.75833 10.7938 10.1074 11.1426 10.1074 11.5728Z" fill="white"/>
</svg>
