<svg width="24" height="24" viewBox="0 0 24 24" fill="none" xmlns="http://www.w3.org/2000/svg">
<path d="M18.2477 7.08829C17.0678 6.57306 15.8194 6.20707 14.5357 6C14.3606 6.29946 14.2017 6.60695 14.0597 6.9213C12.6966 6.72659 11.3097 6.72659 9.94666 6.9213C9.8037 6.60653 9.64307 6.299 9.46543 6C8.18009 6.20724 6.93028 6.57422 5.74934 7.09117C3.65007 9.93487 2.70416 13.3832 3.08102 16.8186C4.45224 17.785 5.99282 18.5217 7.63412 18.9962C8.00295 18.5235 8.329 18.0231 8.6089 17.5C8.07554 17.3107 7.56142 17.0772 7.07269 16.8023C7.20123 16.7131 7.3277 16.62 7.44903 16.525C8.86927 17.1626 10.4251 17.4937 12.0011 17.4937C13.5771 17.4937 15.1329 17.1626 16.5532 16.525C16.6755 16.6209 16.802 16.7169 16.9295 16.8023C16.4389 17.0779 15.9227 17.3118 15.3871 17.501C15.6661 18.0254 15.9922 18.5269 16.3619 19C18.0045 18.5259 19.5462 17.7887 20.9181 16.8215C21.2975 13.3839 20.3506 9.93266 18.2477 7.08829ZM9.013 14.8618C8.55595 14.8305 8.13034 14.6329 7.82782 14.3116C7.5253 13.9904 7.37007 13.571 7.39557 13.144C7.36708 12.7162 7.52126 12.2954 7.82437 11.9734C8.12747 11.6515 8.55485 11.4547 9.013 11.4261C9.24043 11.439 9.46287 11.4938 9.66749 11.5874C9.87212 11.6809 10.0549 11.8114 10.2052 11.9711C10.3556 12.1309 10.4706 12.3169 10.5436 12.5184C10.6165 12.7198 10.6461 12.9328 10.6304 13.1449C10.6595 13.5728 10.5055 13.9939 10.2023 14.316C9.89906 14.638 9.47136 14.8337 9.013 14.8618ZM14.9913 14.8618C14.5342 14.8305 14.1086 14.6329 13.8061 14.3116C13.5036 13.9904 13.3483 13.571 13.3738 13.144C13.345 12.7161 13.4991 12.2949 13.8022 11.9728C14.1054 11.6507 14.5329 11.4537 14.9913 11.4251C15.2187 11.4381 15.4411 11.4929 15.6457 11.5864C15.8504 11.68 16.0331 11.8104 16.1835 11.9702C16.3338 12.13 16.4488 12.3159 16.5218 12.5174C16.5948 12.7188 16.6243 12.9318 16.6087 13.144C16.6377 13.5719 16.4838 13.9932 16.1806 14.3154C15.8774 14.6376 15.4497 14.8334 14.9913 14.8618Z" fill="white"/>
</svg>
